<svg xmlns="http://www.w3.org/2000/svg" xmlns:xlink="http://www.w3.org/1999/xlink" width="1080" zoomAndPan="magnify" viewBox="0 0 810 1012.49997" height="1350" preserveAspectRatio="xMidYMid meet" version="1.0"><defs><clipPath id="476b2386cb"><path d="M 208 396 L 528 396 L 528 655 L 208 655 Z M 208 396 " clip-rule="nonzero"/></clipPath><clipPath id="51554ffb0b"><path d="M 164.414062 579.644531 L 489.636719 374.421875 L 558.042969 482.828125 L 232.820312 688.050781 Z M 164.414062 579.644531 " clip-rule="nonzero"/></clipPath><clipPath id="b598c8f136"><path d="M 164.414062 579.644531 L 489.636719 374.421875 L 558.042969 482.828125 L 232.820312 688.050781 Z M 164.414062 579.644531 " clip-rule="nonzero"/></clipPath></defs><g clip-path="url(#476b2386cb)"><g clip-path="url(#51554ffb0b)"><g clip-path="url(#b598c8f136)"><path fill="#ffffff" d="M 491.269531 412.230469 C 485.921875 409.25 480.636719 406.179688 475.234375 403.296875 C 469.832031 400.414062 464.316406 397.296875 458.171875 396.125 C 455.910156 395.695312 453.753906 398.277344 455.191406 400.34375 C 458.742188 405.457031 463.617188 409.179688 468.535156 412.921875 C 473.453125 416.664062 478.652344 420.398438 483.726562 424.039062 L 485.460938 425.273438 C 480.671875 424.5 475.851562 424.128906 471 424.15625 C 456.101562 424.335938 442.613281 429.957031 431.363281 439.585938 C 408.757812 458.941406 401.390625 488.996094 391.824219 515.875 C 374.378906 564.902344 342.28125 612.570312 293.144531 633.949219 C 280.460938 639.558594 267.238281 643.199219 253.472656 644.871094 C 246.496094 645.710938 239.496094 646.035156 232.472656 645.847656 C 225.449219 645.617188 218.285156 645.332031 211.496094 643.484375 C 208.414062 642.65625 207.34375 647.492188 210.398438 648.335938 C 216.453125 649.964844 222.457031 652.011719 228.671875 652.890625 C 234.769531 653.773438 240.894531 654.195312 247.054688 654.152344 C 259.535156 654.011719 272.203125 651.625 284.101562 647.929688 C 308.863281 640.226562 331.082031 626.222656 349.609375 608.179688 C 369.5 588.808594 385.023438 565.089844 396.746094 540.007812 C 402.796875 527.050781 407.519531 513.632812 412.285156 500.164062 C 416.8125 487.339844 421.820312 474.140625 429.886719 463.066406 C 438.292969 451.523438 450.335938 441.582031 464.566406 439.792969 C 476.886719 438.257812 489.054688 441.128906 500.980469 444.539062 C 487.289062 457.484375 474.867188 472.175781 466.625 488.945312 C 463.558594 495.167969 472.070312 501.601562 476.828125 496.0625 C 484.5625 487.023438 491.992188 477.761719 499.863281 468.863281 C 507.796875 459.929688 516.324219 451.605469 525.449219 443.894531 C 529.675781 440.3125 527.035156 433.886719 523.246094 431.515625 C 512.738281 424.894531 502.089844 418.285156 491.269531 412.230469 Z M 491.269531 412.230469 " fill-opacity="1" fill-rule="nonzero"/></g></g></g></svg>