<svg xmlns="http://www.w3.org/2000/svg" xmlns:xlink="http://www.w3.org/1999/xlink" width="1080" zoomAndPan="magnify" viewBox="0 0 810 1012.49997" height="1350" preserveAspectRatio="xMidYMid meet" version="1.0"><defs><clipPath id="9cdbf96512"><path d="M 316 403 L 668 403 L 668 622 L 316 622 Z M 316 403 " clip-rule="nonzero"/></clipPath><clipPath id="2bc7a877c0"><path d="M 699.34375 493.5625 L 342.71875 637.453125 L 294.753906 518.578125 L 651.378906 374.6875 Z M 699.34375 493.5625 " clip-rule="nonzero"/></clipPath><clipPath id="270e9b0e62"><path d="M 699.34375 493.5625 L 342.71875 637.453125 L 294.753906 518.578125 L 651.378906 374.6875 Z M 699.34375 493.5625 " clip-rule="nonzero"/></clipPath></defs><g clip-path="url(#9cdbf96512)"><g clip-path="url(#2bc7a877c0)"><g clip-path="url(#270e9b0e62)"><path fill="#ffffff" d="M 347.859375 599.960938 C 352.589844 603.847656 357.242188 607.8125 362.042969 611.613281 C 366.84375 615.414062 371.714844 619.464844 377.550781 621.710938 C 379.699219 622.539062 382.28125 620.386719 381.238281 618.09375 C 378.652344 612.429688 374.523438 607.898438 370.351562 603.335938 C 366.179688 598.773438 361.730469 594.171875 357.386719 589.6875 L 355.898438 588.164062 C 360.476562 589.777344 365.152344 591.003906 369.929688 591.84375 C 384.621094 594.324219 398.894531 591.199219 411.683594 583.734375 C 437.382812 568.726562 449.992188 540.464844 464.203125 515.726562 C 490.117188 470.597656 530.207031 429.425781 582.367188 417.160156 C 595.847656 413.902344 609.511719 412.679688 623.355469 413.488281 C 630.371094 413.910156 637.316406 414.839844 644.191406 416.277344 C 651.0625 417.757812 658.058594 419.3125 664.410156 422.347656 C 667.292969 423.710938 669.210938 419.144531 666.355469 417.769531 C 660.691406 415.085938 655.148438 412 649.1875 410.027344 C 643.347656 408.066406 637.394531 406.558594 631.324219 405.5 C 619.019531 403.414062 606.128906 403.5 593.761719 405.015625 C 568.023438 408.175781 543.664062 417.992188 522.214844 432.4375 C 499.183594 447.949219 479.679688 468.515625 463.667969 491.105469 C 455.398438 502.769531 448.359375 515.128906 441.265625 527.535156 C 434.523438 539.34375 427.238281 551.433594 417.328125 560.894531 C 406.996094 570.753906 393.371094 578.386719 379.050781 577.605469 C 366.65625 576.914062 355.191406 571.921875 344.066406 566.4375 C 359.847656 556.144531 374.695312 543.902344 385.796875 528.875 C 389.921875 523.296875 382.699219 515.449219 377.027344 520.050781 C 367.804688 527.566406 358.84375 535.351562 349.507812 542.703125 C 340.109375 550.078125 330.234375 556.746094 319.878906 562.703125 C 315.078125 565.472656 316.53125 572.269531 319.835938 575.277344 C 328.992188 583.667969 338.292969 592.070312 347.859375 599.960938 Z M 347.859375 599.960938 " fill-opacity="1" fill-rule="nonzero"/></g></g></g></svg>