<svg xmlns="http://www.w3.org/2000/svg" xmlns:xlink="http://www.w3.org/1999/xlink" width="1080" zoomAndPan="magnify" viewBox="0 0 810 1012.49997" height="1350" preserveAspectRatio="xMidYMid meet" version="1.0"><defs><clipPath id="7ad6c8b3d9"><path d="M 133.023438 491.382812 L 677.253906 491.382812 L 677.253906 520.617188 L 133.023438 520.617188 Z M 133.023438 491.382812 " clip-rule="nonzero"/></clipPath></defs><g clip-path="url(#7ad6c8b3d9)"><path fill="#d9ff00" d="M 194.796875 491.726562 C 182.988281 491.726562 167.921875 497.289062 155.390625 502.707031 C 142.863281 508.125 133.023438 513.542969 133.023438 513.542969 L 136.429688 519.730469 C 136.429688 519.730469 146.003906 514.460938 158.195312 509.1875 C 170.386719 503.914062 185.355469 498.78125 194.796875 498.78125 C 204.242188 498.78125 213.429688 503.691406 223.132812 509.035156 C 232.835938 514.382812 243.058594 520.167969 254.871094 520.167969 C 266.679688 520.167969 276.90625 514.382812 286.609375 509.035156 C 296.316406 503.691406 305.5 498.78125 314.945312 498.78125 C 324.390625 498.78125 333.570312 503.691406 343.273438 509.035156 C 352.980469 514.382812 363.207031 520.167969 375.015625 520.167969 C 386.828125 520.167969 397.046875 514.382812 406.753906 509.035156 C 416.457031 503.691406 425.644531 498.78125 435.085938 498.78125 C 444.53125 498.78125 453.714844 503.691406 463.421875 509.035156 C 473.125 514.382812 483.347656 520.167969 495.15625 520.167969 C 506.96875 520.167969 517.195312 514.382812 526.898438 509.035156 C 536.605469 503.691406 545.789062 498.78125 555.234375 498.78125 C 564.675781 498.78125 573.859375 503.691406 583.5625 509.035156 C 593.265625 514.382812 603.492188 520.167969 615.304688 520.167969 C 627.117188 520.167969 642.179688 514.605469 654.710938 509.1875 C 667.242188 503.769531 677.078125 498.34375 677.078125 498.34375 L 673.671875 492.164062 C 673.671875 492.164062 664.101562 497.433594 651.90625 502.707031 C 639.714844 507.980469 624.75 513.105469 615.304688 513.105469 C 605.859375 513.105469 596.675781 508.203125 586.96875 502.859375 C 577.265625 497.511719 567.042969 491.726562 555.234375 491.726562 C 543.421875 491.726562 533.195312 497.511719 523.492188 502.859375 C 513.789062 508.203125 504.601562 513.105469 495.15625 513.105469 C 485.714844 513.105469 476.527344 508.203125 466.824219 502.859375 C 457.121094 497.511719 446.898438 491.726562 435.085938 491.726562 C 423.277344 491.726562 413.054688 497.511719 403.351562 502.859375 C 393.644531 508.203125 384.460938 513.105469 375.015625 513.105469 C 365.570312 513.105469 356.386719 508.203125 346.683594 502.859375 C 336.976562 497.511719 326.757812 491.726562 314.945312 491.726562 C 303.132812 491.726562 292.90625 497.511719 283.203125 502.859375 C 273.5 508.203125 264.3125 513.105469 254.871094 513.105469 C 245.425781 513.105469 236.238281 508.203125 226.535156 502.859375 C 216.832031 497.511719 206.609375 491.726562 194.796875 491.726562 Z M 194.796875 491.726562 " fill-opacity="1" fill-rule="nonzero"/></g></svg>